<svg width="24" height="24" viewBox="0 0 24 24" fill="none" xmlns="http://www.w3.org/2000/svg">
<path d="M22.7306 24H0.515702C0.238017 24 0 23.762 0 23.524C0 23.286 0.277686 23.0083 0.515702 23.0083H22.7306C23.0083 23.0083 23.2066 23.2463 23.2066 23.4843C23.2066 23.7224 23.0083 24 22.7306 24Z" fill="#595959"/>
<path d="M7.06109 21.6197H2.06274V9.99658H7.06109V21.6197ZM3.05448 20.628H6.06936V10.9883H3.05448V20.628Z" fill="#595959"/>
<path d="M14.2413 21.6199H9.24292V5.87109H14.2413V21.6199ZM10.2347 20.6281H13.2495V6.86283H10.2347V20.6281Z" fill="#595959"/>
<path d="M21.4214 21.6198H16.4231V0H21.4214V21.6198ZM17.4148 20.6281H20.4297V0.991736H17.4148V20.6281Z" fill="#595959"/>
</svg>
