<svg width="30" height="30" viewBox="0 0 30 30" fill="none" xmlns="http://www.w3.org/2000/svg">
<path d="M26.7306 27H4.5157C4.23802 27 4 26.762 4 26.524C4 26.286 4.27769 26.0083 4.5157 26.0083H26.7306C27.0083 26.0083 27.2066 26.2463 27.2066 26.4843C27.2066 26.7224 27.0083 27 26.7306 27Z" fill="#595959"/>
<path d="M11.0613 24.6197H6.06299V12.9966H11.0613V24.6197ZM7.05472 23.628H10.0696V13.9883H7.05472V23.628Z" fill="#595959"/>
<path d="M18.2415 24.6199H13.2432V8.87109H18.2415V24.6199ZM14.2349 23.6281H17.2498V9.86283H14.2349V23.6281Z" fill="#595959"/>
<path d="M25.4217 24.6198H20.4233V3H25.4217V24.6198ZM21.4151 23.6281H24.43V3.99174H21.4151V23.6281Z" fill="#595959"/>
</svg>
