<svg width="18" height="18" viewBox="0 0 18 18" fill="none" xmlns="http://www.w3.org/2000/svg">
<path fill-rule="evenodd" clip-rule="evenodd" d="M14.2361 0C12.1694 0 10.5034 1.417 8.89232 2.78748C7.43402 4.0278 6.05661 5.19925 4.52987 5.19925H1.99748C0.895979 5.19925 0 6.11896 0 7.25009V8.9833C0 10.1142 0.895979 11.0339 1.99748 11.0339H2.10987V15.0492C2.10987 16.1801 3.00604 17.1 4.10754 17.1H4.95161C6.05311 17.1 6.94909 16.1801 6.94909 15.0492V11.9135C7.59404 12.3433 8.23472 12.8873 8.89173 13.4463C10.5031 14.8164 12.169 16.2338 14.2357 16.2338C16.066 16.2336 17.4996 12.6683 17.4996 8.1169C17.4996 3.56525 16.066 0 14.2361 0ZM6.33038 15.0494C6.33038 15.8297 5.71186 16.4646 4.9518 16.4646H4.10774C3.34748 16.4646 2.72896 15.8297 2.72896 15.0494V11.0339H4.52986C5.14954 11.0339 5.74453 11.2294 6.33038 11.5414V15.0494ZM9.28599 12.9568C7.80747 11.6989 6.27859 10.3985 4.52882 10.3985H1.99644C1.23637 10.3985 0.617861 9.76367 0.617861 8.98331V7.25009C0.617861 6.46972 1.23637 5.83469 1.99644 5.83469H4.52863C6.27839 5.83469 7.80708 4.53408 9.2858 3.27679C10.3665 2.35767 11.4734 1.4188 12.6819 0.947263C11.6554 2.29998 10.9712 4.97267 10.9712 8.1169C10.9712 11.2605 11.6552 13.9334 12.6815 15.2857C11.4734 14.8146 10.3665 13.8757 9.28599 12.9568ZM14.2361 15.5982C12.9588 15.5982 11.5913 12.5921 11.5913 8.1169C11.5913 3.64151 12.9586 0.635234 14.2361 0.635234C15.5132 0.635234 16.8807 3.64151 16.8807 8.1169C16.8805 12.5921 15.5132 15.5982 14.2361 15.5982Z" fill="white"/>
</svg>
