<svg width="30" height="30" viewBox="0 0 30 30" fill="none" xmlns="http://www.w3.org/2000/svg">
<path fill-rule="evenodd" clip-rule="evenodd" d="M9.75658 12.1585C9.78224 12.1747 9.81105 12.1919 9.8409 12.2106C10.0839 12.3606 10.2593 12.469 10.3263 12.6977C10.5882 13.6031 12.3608 16.9678 14.7582 16.9678C17.1535 16.9678 18.9277 13.6025 19.1896 12.6993C19.255 12.4706 19.4315 12.3612 19.675 12.2101C19.7049 12.1919 19.7337 12.1747 19.7588 12.1585C20.4008 10.9953 20.2998 10.4759 20.2244 10.304C20.1327 10.0951 19.94 10.0441 19.9185 10.0388C19.6729 9.9805 19.4891 9.75181 19.5027 9.50072C19.5033 9.4877 19.5703 8.15568 19.2451 6.93409C19.2137 6.82052 18.391 4.04187 14.7582 4.04187C11.0972 4.04187 10.2782 6.90752 10.2703 6.93669C9.94406 8.16193 10.0127 9.48718 10.0132 9.5002C10.0284 9.76223 9.84456 9.99405 9.58534 10.0415C9.57539 10.0441 9.38268 10.0951 9.29104 10.304C9.21615 10.4759 9.11456 10.9953 9.75658 12.1585ZM14.7583 18.0096C11.8691 18.0096 9.85246 14.5559 9.37067 13.1462C9.34449 13.1295 9.31569 13.1124 9.28793 13.0952C9.09941 12.979 8.97478 12.9019 8.89308 12.7566C8.19921 11.536 8.01592 10.5577 8.34846 9.85079C8.50713 9.51218 8.74802 9.30746 8.95959 9.18556C8.95906 8.65733 8.99782 7.64776 9.25861 6.66737C9.26908 6.62882 10.3039 3 14.7583 3C19.2127 3 20.2469 6.62882 20.2574 6.66528C20.5187 7.64724 20.5575 8.65733 20.5569 9.18556C20.768 9.30746 21.0089 9.51218 21.1675 9.85027C21.5001 10.5577 21.3163 11.536 20.6224 12.7581C20.5412 12.9019 20.4166 12.9785 20.2281 13.0946C20.2003 13.1124 20.172 13.1295 20.1453 13.1462C19.6615 14.5585 17.6437 18.0096 14.7583 18.0096Z" fill="#595959"/>
<path fill-rule="evenodd" clip-rule="evenodd" d="M18.5357 18.1737C18.4545 18.1737 18.3723 18.155 18.2948 18.1154C17.2328 17.5668 16.9165 17.0318 16.8641 16.9302C16.7321 16.6745 16.8332 16.3603 17.0903 16.2291C17.3453 16.0994 17.6533 16.1957 17.7884 16.4406C17.8046 16.4661 18.0324 16.8063 18.7776 17.1902C19.0342 17.323 19.1342 17.6371 19.0012 17.8924C18.908 18.0716 18.7247 18.1737 18.5357 18.1737Z" fill="#595959"/>
<path fill-rule="evenodd" clip-rule="evenodd" d="M15.031 27C9.00661 27 3.48863 26.003 3.42945 25.992C3.1718 25.9451 2.98852 25.7154 3.00056 25.4549C3.24983 20.2602 6.50291 18.6469 8.92858 17.8858C10.8185 17.2925 11.8078 16.3319 11.8172 16.322C12.023 16.1198 12.3545 16.1209 12.5577 16.3251C12.7614 16.5298 12.7603 16.8596 12.5545 17.0622C12.5074 17.1086 11.3731 18.2109 9.24331 18.8792C6.88048 19.621 4.43858 20.94 4.07776 25.0455C5.64618 25.3013 10.9934 26.0884 16.4276 25.9389C16.7214 25.9316 16.9581 26.1577 16.966 26.4452C16.9738 26.7328 16.746 26.9724 16.4575 26.9802C15.9799 26.9938 15.5039 27 15.031 27Z" fill="#595959"/>
<path fill-rule="evenodd" clip-rule="evenodd" d="M19.5845 20.2085V25.9388H25.8691L25.8686 20.2085H19.5845ZM25.8686 26.9806H19.5845C19.0068 26.9806 18.5371 26.5133 18.5371 25.9388V20.2085C18.5371 19.6339 19.0068 19.1666 19.5845 19.1666H25.8686C26.4462 19.1666 26.9159 19.6339 26.9159 20.2085V25.9388C26.9159 26.5133 26.4462 26.9806 25.8686 26.9806Z" fill="#595959"/>
<path fill-rule="evenodd" clip-rule="evenodd" d="M25.8688 22.8131H19.5847C19.2951 22.8131 19.061 22.5797 19.061 22.2922C19.061 22.0046 19.2951 21.7712 19.5847 21.7712H25.8688C26.1584 21.7712 26.3925 22.0046 26.3925 22.2922C26.3925 22.5797 26.1584 22.8131 25.8688 22.8131Z" fill="#595959"/>
<path fill-rule="evenodd" clip-rule="evenodd" d="M21.1555 21.2504C20.8659 21.2504 20.6318 21.017 20.6318 20.7294V18.6457C20.6318 18.3581 20.8659 18.1248 21.1555 18.1248C21.4451 18.1248 21.6792 18.3581 21.6792 18.6457V20.7294C21.6792 21.017 21.4451 21.2504 21.1555 21.2504Z" fill="#595959"/>
<path fill-rule="evenodd" clip-rule="evenodd" d="M24.2976 21.2504C24.008 21.2504 23.7739 21.017 23.7739 20.7294V18.6457C23.7739 18.3581 24.008 18.1248 24.2976 18.1248C24.5872 18.1248 24.8213 18.3581 24.8213 18.6457V20.7294C24.8213 21.017 24.5872 21.2504 24.2976 21.2504Z" fill="#595959"/>
</svg>
