<svg width="30" height="30" viewBox="0 0 30 30" fill="none" xmlns="http://www.w3.org/2000/svg">
<path d="M15.0013 22.9101L14.8569 22.66H14.5682H14.1581V22.2V19.32V18.86V18.82V18.36V15.48V15.02V14.98V14.52V11.64V11.18V11.14V10.68V7.8V7.34V7.3V6.84V3.96V3.5H14.2054V3.96V6.84V7.3V7.34V7.8V10.68V11.14V11.18V11.64V14.52V14.98V15.02V15.48V16.2182V17.9477L15.1282 16.485C15.2791 16.2458 15.4448 16.0171 15.6254 15.7979L16.2662 15.02H16.3602C15.0332 16.2346 14.2054 17.9192 14.2054 19.8C14.2054 21.5975 14.9615 23.2158 16.1869 24.4159C15.7191 23.9675 15.3191 23.4608 15.0013 22.9101ZM7.92173 22.2V22.66H7.87446V22.2V19.32V18.86V18.82V18.36V15.48V15.02V14.98V14.52V11.64V11.18V11.14V10.68V8.3V7.8V7.3V3.96V3.5H7.92173V3.96V6.84V7.3V7.34V7.8V10.68V11.14V11.18V11.64V14.52V14.98V15.02V15.48V18.36V18.82V18.86V19.32V22.2ZM1.63809 22.2V22.66H1.59082V3.5H1.63809V3.96V7.3V7.8V8.3V10.68V11.14V11.18V11.64V14.52V14.98V15.02V15.48V18.36V18.82V18.86V19.32V22.2ZM26.7254 3.5H26.7726V14.9165V15.1205C26.6235 14.9782 26.4676 14.8419 26.3056 14.7122L26.7254 15.0016V14.0496V11.64V11.18V11.14V10.68V7.8V7.34V7.3V6.84V3.96V3.5ZM28.8199 19.8C28.8199 18.1622 28.1921 16.6731 27.1537 15.5137C28.2249 16.6808 28.8672 18.1737 28.8672 19.8C28.8672 21.6835 28.007 23.4024 26.6127 24.6275C27.9702 23.4095 28.8199 21.7054 28.8199 19.8ZM20.489 12.624V13.126C20.4732 13.128 20.4575 13.1301 20.4417 13.1322V12.744V11.64V11.18V11.14V10.68V7.8V7.34V7.3V6.84V3.96V3.5H20.489V3.96V6.84V7.3V7.34V7.8V10.68V11.14V11.18V11.64V12.624Z" fill="black" stroke="#595959"/>
<mask id="path-2-inside-1" fill="white">
<path d="M23.6428 21.0125C23.5619 21.1408 23.3958 21.1852 23.2617 21.1142L21.1439 19.9934L20.9888 19.7471V15.7903C20.9888 15.6189 21.1277 15.48 21.2991 15.48C21.4705 15.48 21.6094 15.6189 21.6094 15.7903V19.5826L23.5332 20.6014C23.6824 20.6804 23.7329 20.8697 23.6428 21.0125Z"/>
</mask>
<path d="M23.6428 21.0125C23.5619 21.1408 23.3958 21.1852 23.2617 21.1142L21.1439 19.9934L20.9888 19.7471V15.7903C20.9888 15.6189 21.1277 15.48 21.2991 15.48C21.4705 15.48 21.6094 15.6189 21.6094 15.7903V19.5826L23.5332 20.6014C23.6824 20.6804 23.7329 20.8697 23.6428 21.0125Z" fill="#595959"/>
<path d="M21.1439 19.9934L19.4516 21.0593L19.7363 21.5113L20.2084 21.7611L21.1439 19.9934ZM20.9888 19.7471H18.9888V20.3244L19.2965 20.813L20.9888 19.7471ZM21.6094 19.5826H19.6094V20.7866L20.6734 21.3501L21.6094 19.5826ZM23.2617 21.1142L24.1972 19.3465L23.2617 21.1142ZM24.1972 19.3465L22.0795 18.2257L20.2084 21.7611L22.3262 22.8819L24.1972 19.3465ZM22.8362 18.9275L22.6811 18.6812L19.2965 20.813L19.4516 21.0593L22.8362 18.9275ZM22.9888 19.7471V15.7903H18.9888V19.7471H22.9888ZM19.6094 15.7903V19.5826H23.6094V15.7903H19.6094ZM20.6734 21.3501L22.5972 22.3689L24.4692 18.8339L22.5454 17.8152L20.6734 21.3501ZM22.5972 22.3689C21.7177 21.9031 21.4202 20.7876 21.9511 19.9457L25.3345 22.0793C26.0455 20.9518 25.6471 19.4578 24.4692 18.8339L22.5972 22.3689ZM21.2991 17.48C20.3659 17.48 19.6094 16.7235 19.6094 15.7903H23.6094C23.6094 14.5144 22.5751 13.48 21.2991 13.48V17.48ZM22.9888 15.7903C22.9888 16.7235 22.2323 17.48 21.2991 17.48V13.48C20.0231 13.48 18.9888 14.5144 18.9888 15.7903H22.9888ZM22.3262 22.8819C23.3846 23.442 24.6958 23.0922 25.3345 22.0793L21.9511 19.9457C22.428 19.1895 23.407 18.9283 24.1972 19.3465L22.3262 22.8819Z" fill="#595959" mask="url(#path-2-inside-1)"/>
</svg>
