<svg width="30" height="30" viewBox="0 0 30 30" fill="none" xmlns="http://www.w3.org/2000/svg">
<path d="M16.0435 6.15537C18.3163 6.42277 20.3235 7.54962 21.7371 9.20468L24.3552 7.44929C22.3604 4.96299 19.4 3.28993 16.0435 3V6.15537Z" stroke="#ED1C24" stroke-width="0.6" stroke-miterlimit="10"/>
<path d="M22.897 10.9432C23.5144 12.1544 23.8696 13.5224 23.8696 14.9759C23.8696 17.6794 22.6607 20.0965 20.7598 21.7265L22.5117 24.3499C25.2474 22.1461 27.0001 18.7669 27.0001 14.9759C27.0001 12.8764 26.4619 10.9035 25.518 9.18579L22.897 10.9432Z" stroke="#ED1C24" stroke-width="0.6" stroke-miterlimit="10"/>
<path d="M19.0247 22.8886C17.8158 23.5073 16.4505 23.8633 15 23.8633C10.1014 23.8633 6.13043 19.8843 6.13043 14.9759C6.13043 10.4219 9.55064 6.67367 13.9565 6.15537V3C7.8181 3.53024 3 8.68779 3 14.9759C3 21.6166 8.3725 27 15 27C17.0952 27 19.0643 26.4607 20.7785 25.515L19.0247 22.8886Z" stroke="#ED1C24" stroke-width="0.6" stroke-miterlimit="10"/>
<path fill-rule="evenodd" clip-rule="evenodd" d="M12.1479 14.0673C12.1628 14.0767 12.1796 14.0867 12.1969 14.0976C12.3383 14.1849 12.4403 14.2479 12.4793 14.3809C12.6317 14.9077 13.663 16.8652 15.0577 16.8652C16.4513 16.8652 17.4835 14.9074 17.6358 14.3819C17.6739 14.2488 17.7766 14.1852 17.9182 14.0973C17.9356 14.0867 17.9524 14.0767 17.967 14.0673C18.3405 13.3905 18.2817 13.0884 18.2378 12.9883C18.1845 12.8668 18.0724 12.8371 18.0599 12.8341C17.917 12.8001 17.8101 12.6671 17.818 12.521C17.8183 12.5134 17.8573 11.7385 17.6681 11.0278C17.6498 10.9617 17.1712 9.34515 15.0577 9.34515C12.9278 9.34515 12.4513 11.0123 12.4467 11.0293C12.2569 11.7421 12.2969 12.5131 12.2972 12.5207C12.306 12.6731 12.1991 12.808 12.0482 12.8356C12.0425 12.8371 11.9303 12.8668 11.877 12.9883C11.8335 13.0884 11.7743 13.3905 12.1479 14.0673ZM15.0579 17.4713C13.377 17.4713 12.2037 15.462 11.9235 14.6419C11.9082 14.6322 11.8915 14.6222 11.8753 14.6122C11.7656 14.5446 11.6931 14.4998 11.6456 14.4152C11.2419 13.7051 11.1353 13.1359 11.3287 12.7247C11.4211 12.5277 11.5612 12.4086 11.6843 12.3377C11.684 12.0303 11.7065 11.443 11.8583 10.8726C11.8644 10.8502 12.4664 8.73901 15.0579 8.73901C17.6493 8.73901 18.2511 10.8502 18.2571 10.8714C18.4092 11.4427 18.4317 12.0303 18.4314 12.3377C18.5542 12.4086 18.6943 12.5277 18.7867 12.7244C18.9801 13.1359 18.8732 13.7051 18.4695 14.4161C18.4223 14.4998 18.3498 14.5443 18.2401 14.6119C18.2239 14.6222 18.2075 14.6322 18.192 14.6419C17.9104 15.4635 16.7366 17.4713 15.0579 17.4713Z" fill="#ED1C24"/>
<path fill-rule="evenodd" clip-rule="evenodd" d="M17.2557 17.5668C17.2085 17.5668 17.1607 17.5559 17.1156 17.5329C16.4977 17.2138 16.3137 16.9025 16.2832 16.8434C16.2064 16.6946 16.2652 16.5119 16.4148 16.4355C16.5632 16.36 16.7423 16.4161 16.821 16.5585C16.8304 16.5734 16.9629 16.7713 17.3965 16.9946C17.5458 17.0719 17.6039 17.2547 17.5266 17.4032C17.4723 17.5074 17.3657 17.5668 17.2557 17.5668Z" fill="#ED1C24"/>
<path d="M13.347 16.4896C13.3415 16.4954 12.766 17.0542 11.6664 17.3994C10.601 17.7337 9.29479 18.2303 8.63979 19.8131H9.30061C9.86686 18.6587 10.8535 18.2901 11.8495 17.9774C13.0886 17.5885 13.7485 16.9472 13.7759 16.9203C13.8957 16.8024 13.8963 16.6105 13.7778 16.4914C13.6595 16.3726 13.4667 16.372 13.347 16.4896Z" fill="#ED1C24"/>
<path fill-rule="evenodd" clip-rule="evenodd" d="M17.9674 14.0673C17.9524 14.0767 17.9357 14.0867 17.9183 14.0976C17.777 14.1849 17.6749 14.2479 17.6359 14.3809C17.4836 14.9077 16.4523 16.8652 15.0575 16.8652C13.664 16.8652 12.6318 14.9074 12.4794 14.3819C12.4413 14.2488 12.3387 14.1852 12.197 14.0973C12.1796 14.0867 12.1629 14.0767 12.1483 14.0673C11.7747 13.3905 11.8335 13.0884 11.8774 12.9883C11.9307 12.8668 12.0428 12.8371 12.0553 12.8341C12.1982 12.8001 12.3052 12.6671 12.2972 12.521C12.2969 12.5134 12.2579 11.7385 12.4471 11.0278C12.4654 10.9617 12.944 9.34515 15.0575 9.34515C17.1874 9.34515 17.6639 11.0123 17.6685 11.0293C17.8583 11.7421 17.8184 12.5131 17.8181 12.5207C17.8092 12.6731 17.9162 12.808 18.067 12.8356C18.0728 12.8371 18.1849 12.8668 18.2382 12.9883C18.2818 13.0884 18.3409 13.3905 17.9674 14.0673ZM15.0574 17.4713C16.7382 17.4713 17.9115 15.462 18.1918 14.6419C18.207 14.6322 18.2238 14.6222 18.2399 14.6122C18.3496 14.5446 18.4221 14.4998 18.4696 14.4152C18.8733 13.7051 18.9799 13.1359 18.7865 12.7247C18.6942 12.5277 18.554 12.4086 18.4309 12.3377C18.4312 12.0303 18.4087 11.443 18.257 10.8726C18.2509 10.8502 17.6489 8.73901 15.0574 8.73901C12.4659 8.73901 11.8642 10.8502 11.8581 10.8714C11.7061 11.4427 11.6835 12.0303 11.6838 12.3377C11.561 12.4086 11.4209 12.5277 11.3286 12.7244C11.1351 13.1359 11.2421 13.7051 11.6457 14.4161C11.693 14.4998 11.7655 14.5443 11.8751 14.6119C11.8913 14.6222 11.9077 14.6322 11.9233 14.6419C12.2048 15.4635 13.3787 17.4713 15.0574 17.4713Z" fill="#ED1C24"/>
<path fill-rule="evenodd" clip-rule="evenodd" d="M12.8595 17.5668C12.9067 17.5668 12.9546 17.5559 12.9997 17.5329C13.6175 17.2138 13.8016 16.9025 13.832 16.8434C13.9088 16.6946 13.85 16.5119 13.7004 16.4355C13.552 16.36 13.3729 16.4161 13.2943 16.5585C13.2848 16.5734 13.1523 16.7713 12.7188 16.9946C12.5695 17.0719 12.5113 17.2547 12.5887 17.4032C12.6429 17.5074 12.7495 17.5668 12.8595 17.5668Z" fill="#ED1C24"/>
<path d="M16.7683 16.4896C16.7738 16.4954 17.3493 17.0542 18.4488 17.3994C19.5142 17.7337 20.8204 18.2303 21.4754 19.8131H20.8146C20.2484 18.6587 19.2618 18.2901 18.2657 17.9774C17.0266 17.5885 16.3667 16.9472 16.3393 16.9203C16.2196 16.8024 16.219 16.6105 16.3375 16.4914C16.4557 16.3726 16.6485 16.372 16.7683 16.4896Z" fill="#ED1C24"/>
</svg>
