<svg width="29" height="24" viewBox="0 0 29 24" fill="none" xmlns="http://www.w3.org/2000/svg">
<path d="M14.0013 19.9101L13.8569 19.66H13.5682H13.1581V19.2V16.32V15.86V15.82V15.36V12.48V12.02V11.98V11.52V8.64V8.18V8.14V7.68V4.8V4.34V4.3V3.84V0.96V0.5H13.2054V0.96V3.84V4.3V4.34V4.8V7.68V8.14V8.18V8.64V11.52V11.98V12.02V12.48V13.2182V14.9477L14.1282 13.485C14.2791 13.2458 14.4448 13.0171 14.6254 12.7979L15.2662 12.02H15.3602C14.0332 13.2346 13.2054 14.9192 13.2054 16.8C13.2054 18.5975 13.9615 20.2158 15.1869 21.4159C14.7191 20.9675 14.3191 20.4608 14.0013 19.9101ZM6.92173 19.2V19.66H6.87446V19.2V16.32V15.86V15.82V15.36V12.48V12.02V11.98V11.52V8.64V8.18V8.14V7.68V5.3V4.8V4.3V0.96V0.5H6.92173V0.96V3.84V4.3V4.34V4.8V7.68V8.14V8.18V8.64V11.52V11.98V12.02V12.48V15.36V15.82V15.86V16.32V19.2ZM0.638093 19.2V19.66H0.59082V0.5H0.638093V0.96V4.3V4.8V5.3V7.68V8.14V8.18V8.64V11.52V11.98V12.02V12.48V15.36V15.82V15.86V16.32V19.2ZM25.7254 0.5H25.7726V11.9165V12.1205C25.6235 11.9782 25.4676 11.8419 25.3056 11.7122L25.7254 12.0016V11.0496V8.64V8.18V8.14V7.68V4.8V4.34V4.3V3.84V0.96V0.5ZM27.8199 16.8C27.8199 15.1622 27.1921 13.6731 26.1537 12.5137C27.2249 13.6808 27.8672 15.1737 27.8672 16.8C27.8672 18.6835 27.007 20.4024 25.6127 21.6275C26.9702 20.4095 27.8199 18.7054 27.8199 16.8ZM19.489 9.62402V10.126C19.4732 10.128 19.4575 10.1301 19.4417 10.1322V9.74402V8.64V8.18V8.14V7.68V4.8V4.34V4.3V3.84V0.96V0.5H19.489V0.96V3.84V4.3V4.34V4.8V7.68V8.14V8.18V8.64V9.62402Z" fill="black" stroke="#595959"/>
<mask id="path-2-inside-1" fill="white">
<path d="M22.6428 18.0125C22.5619 18.1408 22.3958 18.1852 22.2617 18.1142L20.1439 16.9934L19.9888 16.7471V12.7903C19.9888 12.6189 20.1277 12.48 20.2991 12.48C20.4705 12.48 20.6094 12.6189 20.6094 12.7903V16.5826L22.5332 17.6014C22.6824 17.6804 22.7329 17.8697 22.6428 18.0125Z"/>
</mask>
<path d="M22.6428 18.0125C22.5619 18.1408 22.3958 18.1852 22.2617 18.1142L20.1439 16.9934L19.9888 16.7471V12.7903C19.9888 12.6189 20.1277 12.48 20.2991 12.48C20.4705 12.48 20.6094 12.6189 20.6094 12.7903V16.5826L22.5332 17.6014C22.6824 17.6804 22.7329 17.8697 22.6428 18.0125Z" fill="#595959"/>
<path d="M20.1439 16.9934L18.4516 18.0593L18.7363 18.5113L19.2084 18.7611L20.1439 16.9934ZM19.9888 16.7471H17.9888V17.3244L18.2965 17.813L19.9888 16.7471ZM20.6094 16.5826H18.6094V17.7866L19.6734 18.3501L20.6094 16.5826ZM22.2617 18.1142L23.1972 16.3465L22.2617 18.1142ZM23.1972 16.3465L21.0795 15.2257L19.2084 18.7611L21.3262 19.8819L23.1972 16.3465ZM21.8362 15.9275L21.6811 15.6812L18.2965 17.813L18.4516 18.0593L21.8362 15.9275ZM21.9888 16.7471V12.7903H17.9888V16.7471H21.9888ZM18.6094 12.7903V16.5826H22.6094V12.7903H18.6094ZM19.6734 18.3501L21.5972 19.3689L23.4692 15.8339L21.5454 14.8152L19.6734 18.3501ZM21.5972 19.3689C20.7177 18.9031 20.4202 17.7876 20.9511 16.9457L24.3345 19.0793C25.0455 17.9518 24.6471 16.4578 23.4692 15.8339L21.5972 19.3689ZM20.2991 14.48C19.3659 14.48 18.6094 13.7235 18.6094 12.7903H22.6094C22.6094 11.5144 21.5751 10.48 20.2991 10.48V14.48ZM21.9888 12.7903C21.9888 13.7235 21.2323 14.48 20.2991 14.48V10.48C19.0231 10.48 17.9888 11.5144 17.9888 12.7903H21.9888ZM21.3262 19.8819C22.3846 20.442 23.6958 20.0922 24.3345 19.0793L20.9511 16.9457C21.428 16.1895 22.407 15.9283 23.1972 16.3465L21.3262 19.8819Z" fill="#595959" mask="url(#path-2-inside-1)"/>
</svg>
