<svg width="30" height="30" viewBox="0 0 30 30" fill="none" xmlns="http://www.w3.org/2000/svg">
<path d="M26.7306 27H4.5157C4.23802 27 4 26.762 4 26.524C4 26.286 4.27769 26.0083 4.5157 26.0083H26.7306C27.0083 26.0083 27.2066 26.2463 27.2066 26.4843C27.2066 26.7224 27.0083 27 26.7306 27Z" fill="#ED1C24"/>
<path d="M11.0612 24.6197H6.06281V12.9966H11.0612V24.6197ZM7.05454 23.628H10.0694V13.9883H7.05454V23.628Z" fill="#ED1C24"/>
<path d="M18.2413 24.6199H13.243V8.87109H18.2413V24.6199ZM14.2347 23.6281H17.2496V9.86283H14.2347V23.6281Z" fill="#ED1C24"/>
<path d="M25.4215 24.6198H20.4232V3H25.4215V24.6198ZM21.4149 23.6281H24.4298V3.99174H21.4149V23.6281Z" fill="#ED1C24"/>
</svg>
