<svg width="30" height="30" viewBox="0 0 30 30" fill="none" xmlns="http://www.w3.org/2000/svg">
<path fill-rule="evenodd" clip-rule="evenodd" d="M9.75634 12.1585C9.782 12.1747 9.8108 12.1919 9.84065 12.2106C10.0836 12.3606 10.2591 12.469 10.3261 12.6977C10.5879 13.6031 12.3606 16.9678 14.758 16.9678C17.1533 16.9678 18.9275 13.6025 19.1893 12.6993C19.2548 12.4706 19.4313 12.3612 19.6748 12.2101C19.7046 12.1919 19.7334 12.1747 19.7586 12.1585C20.4006 10.9953 20.2995 10.4759 20.2241 10.304C20.1325 10.0951 19.9398 10.0441 19.9183 10.0388C19.6727 9.9805 19.4889 9.75181 19.5025 9.50072C19.503 9.4877 19.57 8.15568 19.2448 6.93409C19.2134 6.82052 18.3907 4.04187 14.758 4.04187C11.097 4.04187 10.2779 6.90752 10.2701 6.93669C9.94382 8.16193 10.0124 9.48718 10.0129 9.5002C10.0281 9.76223 9.84432 9.99405 9.5851 10.0415C9.57515 10.0441 9.38244 10.0951 9.29079 10.304C9.21591 10.4759 9.11431 10.9953 9.75634 12.1585ZM14.758 18.0096C11.8689 18.0096 9.85221 14.5559 9.37043 13.1462C9.34425 13.1295 9.31544 13.1124 9.28769 13.0952C9.09917 12.979 8.97453 12.9019 8.89284 12.7566C8.19897 11.536 8.01568 10.5577 8.34821 9.85079C8.50689 9.51218 8.74778 9.30746 8.95934 9.18556C8.95882 8.65733 8.99757 7.64776 9.25836 6.66737C9.26884 6.62882 10.3036 3 14.758 3C19.2124 3 20.2467 6.62882 20.2572 6.66528C20.5185 7.64724 20.5572 8.65733 20.5567 9.18556C20.7677 9.30746 21.0086 9.51218 21.1673 9.85027C21.4998 10.5577 21.316 11.536 20.6222 12.7581C20.541 12.9019 20.4164 12.9785 20.2278 13.0946C20.2001 13.1124 20.1718 13.1295 20.1451 13.1462C19.6612 14.5585 17.6435 18.0096 14.758 18.0096Z" fill="#ED1C24"/>
<path fill-rule="evenodd" clip-rule="evenodd" d="M18.5357 18.1736C18.4545 18.1736 18.3723 18.1548 18.2948 18.1152C17.2328 17.5667 16.9165 17.0317 16.8641 16.9301C16.7321 16.6743 16.8332 16.3602 17.0903 16.2289C17.3453 16.0992 17.6533 16.1956 17.7884 16.4404C17.8046 16.466 18.0324 16.8061 18.7776 17.1901C19.0342 17.3229 19.1342 17.637 19.0012 17.8923C18.908 18.0715 18.7247 18.1736 18.5357 18.1736Z" fill="#ED1C24"/>
<path fill-rule="evenodd" clip-rule="evenodd" d="M15.031 27C9.00661 27 3.48863 26.003 3.42945 25.992C3.1718 25.9451 2.98852 25.7154 3.00056 25.4549C3.24983 20.2602 6.50291 18.6469 8.92858 17.8858C10.8185 17.2925 11.8078 16.3319 11.8172 16.322C12.023 16.1198 12.3545 16.1209 12.5577 16.3251C12.7614 16.5298 12.7603 16.8596 12.5545 17.0622C12.5074 17.1086 11.3731 18.2109 9.24331 18.8792C6.88048 19.621 4.43858 20.94 4.07776 25.0455C5.64618 25.3013 10.9934 26.0884 16.4276 25.9389C16.7214 25.9316 16.9581 26.1577 16.966 26.4452C16.9738 26.7328 16.746 26.9724 16.4575 26.9802C15.9799 26.9938 15.5039 27 15.031 27Z" fill="#ED1C24"/>
<path fill-rule="evenodd" clip-rule="evenodd" d="M19.5845 20.2084V25.9386H25.8691L25.8686 20.2084H19.5845ZM25.8686 26.9805H19.5845C19.0068 26.9805 18.5371 26.5132 18.5371 25.9386V20.2084C18.5371 19.6338 19.0068 19.1665 19.5845 19.1665H25.8686C26.4462 19.1665 26.9159 19.6338 26.9159 20.2084V25.9386C26.9159 26.5132 26.4462 26.9805 25.8686 26.9805Z" fill="#ED1C24"/>
<path fill-rule="evenodd" clip-rule="evenodd" d="M25.8686 22.8131H19.5845C19.2949 22.8131 19.0608 22.5797 19.0608 22.2922C19.0608 22.0046 19.2949 21.7712 19.5845 21.7712H25.8686C26.1582 21.7712 26.3923 22.0046 26.3923 22.2922C26.3923 22.5797 26.1582 22.8131 25.8686 22.8131Z" fill="#ED1C24"/>
<path fill-rule="evenodd" clip-rule="evenodd" d="M21.1555 21.2504C20.8659 21.2504 20.6318 21.017 20.6318 20.7294V18.6457C20.6318 18.3581 20.8659 18.1248 21.1555 18.1248C21.4451 18.1248 21.6792 18.3581 21.6792 18.6457V20.7294C21.6792 21.017 21.4451 21.2504 21.1555 21.2504Z" fill="#ED1C24"/>
<path fill-rule="evenodd" clip-rule="evenodd" d="M24.2976 21.2504C24.008 21.2504 23.7739 21.017 23.7739 20.7294V18.6457C23.7739 18.3581 24.008 18.1248 24.2976 18.1248C24.5872 18.1248 24.8213 18.3581 24.8213 18.6457V20.7294C24.8213 21.017 24.5872 21.2504 24.2976 21.2504Z" fill="#ED1C24"/>
</svg>
